<svg fill="#ffffff" viewBox="0 0 24 24" xmlns="http://www.w3.org/2000/svg" id="folder-search" class="icon glyph" style="--darkreader-inline-fill: #181a1b; --darkreader-inline-stroke: #e8e6e3;" stroke="#ffffff" data-darkreader-inline-fill="" data-darkreader-inline-stroke=""><g id="SVGRepo_bgCarrier" stroke-width="0"></g><g id="SVGRepo_tracerCarrier" stroke-linecap="round" stroke-linejoin="round"></g><g id="SVGRepo_iconCarrier"><path d="M21.71,20.29l-2.54-2.54a5,5,0,1,0-1.42,1.42l2.54,2.54a1,1,0,0,0,1.42,0A1,1,0,0,0,21.71,20.29ZM12,15a3,3,0,1,1,3,3A3,3,0,0,1,12,15ZM22,7v8A7,7,0,0,0,8,15a6.89,6.89,0,0,0,1.26,4H4a2,2,0,0,1-2-2V4A2,2,0,0,1,4,2H9a2,2,0,0,1,1.41.59L12.83,5H20A2,2,0,0,1,22,7Z"></path></g></svg>