<svg fill="#ffffff" viewBox="0 0 24 24" xmlns="http://www.w3.org/2000/svg" id="folder-remove" class="icon glyph" style="--darkreader-inline-fill: #181a1b;" data-darkreader-inline-fill=""><g id="SVGRepo_bgCarrier" stroke-width="0"></g><g id="SVGRepo_tracerCarrier" stroke-linecap="round" stroke-linejoin="round"></g><g id="SVGRepo_iconCarrier"><path d="M22,7v7.77A3,3,0,0,0,20,14H12a3,3,0,0,0-2.23,5H4a2,2,0,0,1-2-2V4A2,2,0,0,1,4,2H9a2,2,0,0,1,1.41.59L12.83,5H20A2,2,0,0,1,22,7ZM21,17a1,1,0,0,0-1-1H12a1,1,0,0,0,0,2h8A1,1,0,0,0,21,17Z"></path></g></svg>