<svg fill="#ffffff" viewBox="0 0 24 24" xmlns="http://www.w3.org/2000/svg" id="folder-block" class="icon glyph" style="--darkreader-inline-fill: #181a1b; --darkreader-inline-stroke: #e8e6e3;" stroke="#ffffff" data-darkreader-inline-fill="" data-darkreader-inline-stroke=""><g id="SVGRepo_bgCarrier" stroke-width="0"></g><g id="SVGRepo_tracerCarrier" stroke-linecap="round" stroke-linejoin="round"></g><g id="SVGRepo_iconCarrier"><path d="M20.28,11.8l0-.05-.05,0a6,6,0,0,0-8.48,8.48l0,.05.05,0a6,6,0,0,0,8.48-8.48ZM16,12a4,4,0,0,1,2,.57L12.57,18A4,4,0,0,1,16,12Zm0,8a4,4,0,0,1-2-.57L19.43,14A4,4,0,0,1,16,20ZM22,7v3.73a.69.69,0,0,0-.11-.13l0-.06-.43-.43-.05,0A7.93,7.93,0,0,0,16,8,8,8,0,0,0,8.58,19H4a2,2,0,0,1-2-2V4A2,2,0,0,1,4,2H9a2,2,0,0,1,1.41.59L12.83,5H20A2,2,0,0,1,22,7Z"></path></g></svg>